<svg width="131" height="65" viewBox="0 0 131 65" fill="none" xmlns="http://www.w3.org/2000/svg">
<path d="M-189.978 78.8986C-192.341 77.665 -192.815 76.7034 -191.763 74.5256C-189.675 70.2023 -187.617 65.8271 -185.204 61.6859C-177.314 48.1123 -167.153 36.4722 -154.674 26.9465C-138.498 14.6048 -120.239 6.94984 -100.272 3.27382C-82.6755 0.0313182 -65.0439 0.290168 -47.4238 2.96903C-18.211 7.4072 8.79777 17.9677 34.1492 32.9376C59.8114 48.0859 82.4352 66.9515 102.488 88.9642C112.216 99.6525 121.225 110.917 129.426 122.821C130.196 123.936 130.184 123.954 130.416 126.037C129.606 125.073 129.09 124.54 128.668 123.929C120.759 112.491 112.294 101.489 102.931 91.1912C74.817 60.2763 42.0644 35.8271 3.31107 19.7844C-17.9196 10.9918 -39.9651 5.56787 -62.988 4.61112C-81.5646 3.8355 -99.7794 6.02647 -117.413 12.0848C-127.395 15.5154 -136.847 20.0835 -145.658 26.0021C-164.603 38.7294 -178.583 55.6345 -188.513 76.0554C-188.984 77.02 -189.492 77.96 -189.981 78.9122L-189.978 78.8986Z" fill="#2B2C30"/>
</svg>
