<svg width="108" height="105" viewBox="0 0 108 105" fill="none" xmlns="http://www.w3.org/2000/svg">
<path d="M-27.3422 20.9988C-27.1966 20.8866 -26.9817 20.8144 -26.9326 20.6695C-24.6557 14.9057 -20.1261 11.3202 -14.8712 8.6384C-1.21852 1.67131 12.9058 1.02721 27.3666 5.90047C35.6001 8.67957 42.6054 13.4861 49.0723 19.1251C58.7319 27.5541 67.715 36.655 75.3531 46.9653C89.7256 66.3715 98.716 88.0397 102.203 111.981C103.897 123.605 104.31 135.31 104.504 147.015C104.579 151.365 104.532 155.726 104.526 160.076C104.522 160.443 104.429 160.805 104.38 161.169L105.236 161.247C106.184 159.925 107.138 158.593 107.803 157.661C107.582 156.124 107.306 155.041 107.286 153.956C106.988 138.611 106.974 123.257 104.401 108.053C99.4964 79.0679 87.4133 53.6165 67.0211 32.3168C61.4517 26.5032 55.5998 20.9191 49.5245 15.6218C41.7084 8.79976 32.8103 3.73168 22.5287 1.55992C9.6374 -1.1717 -2.76483 0.189587 -14.4474 6.50433C-19.4668 9.21822 -23.8175 12.7339 -26.6842 17.7992C-27.1992 18.6912 -27.4544 19.7331 -27.8258 20.6965C-27.6699 20.7865 -27.5054 20.8815 -27.3495 20.9715L-27.3422 20.9988Z" fill="#BFC1B9"/>
</svg>
