<svg width="187" height="179" viewBox="0 0 187 179" fill="none" xmlns="http://www.w3.org/2000/svg">
<path d="M0.949699 181.685C1.17455 182.795 1.33917 183.641 1.53745 184.613C4.80045 186.513 8.54203 187.302 12.2386 188.154C26.5551 191.472 41.0265 192.895 55.7265 191.616C67.8277 190.569 79.5391 187.834 91.0663 184.104C99.5466 181.366 107.831 178.204 115.696 173.984C130.253 166.181 142.258 155.696 150.369 141.11C153.828 134.893 156.532 128.371 158.252 121.036C157.156 121.154 156.218 121.25 155.291 121.343C147.308 122.229 139.923 120.709 133.422 115.804C130.115 113.315 127.813 110.091 127.042 105.981C125.926 100.037 128.108 95.1974 132.635 91.4997C137.751 87.3336 143.74 86.1946 150.082 87.8393C156.358 89.4705 159.698 94.0522 161.074 100.154C162.109 104.711 162.005 109.346 161.612 113.986C161.54 114.875 161.448 115.769 161.323 117.118C164.126 116.066 166.691 115.244 169.135 114.165C175.451 111.386 180.792 107.211 185.583 102.294C194.823 92.8089 202.239 82.1566 206.367 69.4347C209.678 59.2299 211.173 48.7355 211.168 38.0528C211.161 28.2506 210.799 18.4399 210.595 8.63861C210.565 7.09396 210.543 5.54671 210.518 3.86613C210.345 2.83569 208.537 2.19178 209.489 0.52871C211.03 0.871487 211.999 1.78187 212.35 3.32356C212.507 4.0268 212.64 4.75703 212.648 5.47976C212.864 17.9175 213.35 30.3557 213.171 42.7855C212.975 56.0792 210.469 69.0188 204.58 81.0426C198.164 94.1499 189.023 105.088 177.031 113.499C172.838 116.434 168.149 118.405 163.219 119.788C162.436 119.998 161.644 120.21 160.746 120.45C160.474 121.445 160.189 122.391 159.945 123.336C154.124 145.85 141.125 162.905 121.026 174.596C112.196 179.736 102.913 183.808 93.0771 186.547C85.8244 188.573 78.5782 190.701 71.2264 192.319C62.8861 194.15 54.3562 194.655 45.8044 194.731C32.5233 194.852 19.6027 192.61 6.89364 188.955C5.15576 188.457 3.42738 187.803 1.85781 186.929C-0.282213 185.742 -0.529545 184.163 0.937447 181.678L0.949699 181.685ZM159.089 117.437C160.113 111.365 160.611 105.537 159.179 99.6886C158.398 96.5023 156.561 94.1681 153.723 92.5785C148.759 89.8191 143.643 90.0823 138.501 91.9468C134.274 93.4831 131.316 96.429 129.497 100.498C127.994 103.852 128.387 107.059 130.643 109.954C131.417 110.948 132.321 111.886 133.318 112.633C141.017 118.417 149.604 119.554 159.096 117.424L159.089 117.437Z" fill="#2B2C30"/>
</svg>
