<svg width="117" height="204" viewBox="0 0 117 204" fill="none" xmlns="http://www.w3.org/2000/svg">
<path d="M13.1198 213.25C12.0102 213.025 11.164 212.861 10.1922 212.663C8.29199 209.4 7.50345 205.658 6.65114 201.961C3.33348 187.645 1.91049 173.173 3.1887 158.473C4.23642 146.372 6.97069 134.661 10.7013 123.134C13.4394 114.653 16.6012 106.369 20.8209 98.5035C28.6242 83.9472 39.1087 71.9417 53.6951 63.8306C59.9121 60.3718 66.4342 57.6677 73.7693 55.9475C73.6514 57.0444 73.5556 57.9815 73.4624 58.909C72.5761 66.8916 74.0965 74.2768 79.0011 80.7777C81.49 84.0845 84.7138 86.3874 88.8246 87.1576C94.7682 88.2739 99.6078 86.0922 103.306 81.565C107.472 76.4489 108.611 70.4596 106.966 64.1179C105.335 57.8418 100.753 54.5022 94.6512 53.126C90.0937 52.0912 85.4589 52.1952 80.8192 52.5877C79.9302 52.6601 79.0359 52.7517 77.6876 52.877C78.739 50.0736 79.5608 47.5089 80.6401 45.065C83.4195 38.7492 87.5942 33.4076 92.5116 28.6171C101.996 19.3771 112.649 11.9614 125.37 7.83344C135.575 4.52181 146.07 3.02704 156.752 3.0321C166.555 3.03932 176.365 3.40086 186.167 3.60455C187.711 3.63539 189.258 3.65657 190.939 3.68241C191.969 3.85498 192.613 5.66327 194.276 4.71126C193.934 3.17003 193.023 2.20139 191.482 1.85041C190.778 1.69304 190.048 1.55948 189.325 1.55217C176.888 1.33566 164.45 0.849878 152.02 1.02889C138.726 1.22491 125.786 3.7313 113.763 9.61997C100.655 16.0362 89.7169 25.1766 81.3066 37.1685C78.3713 41.3616 76.4004 46.0513 75.0173 50.9813C74.8076 51.7637 74.5954 52.5558 74.3547 53.4541C73.3604 53.726 72.4144 54.0109 71.4691 54.2545C48.9553 60.0759 31.8999 73.0745 20.2095 93.1737C15.0689 102.004 10.9976 111.287 8.25846 121.123C6.23228 128.376 4.1044 135.622 2.4865 142.974C0.655485 151.314 0.150562 159.844 0.0746217 168.396C-0.046918 181.677 2.19541 194.597 5.8506 207.306C6.34774 209.044 7.00261 210.773 7.87614 212.342C9.06269 214.482 10.6426 214.729 13.1269 213.263L13.1198 213.25ZM77.3686 55.1106C83.4404 54.0872 89.268 53.5885 95.1165 55.021C98.3029 55.8023 100.637 57.6391 102.227 60.4772C104.986 65.4405 104.723 70.5567 102.858 75.6994C101.322 79.9258 98.3761 82.8841 94.3067 84.7028C90.9534 86.2061 87.7459 85.8126 84.8512 83.5565C83.8575 82.783 82.9195 81.8794 82.1722 80.882C76.3879 73.1825 75.2515 64.5958 77.3809 55.1035L77.3686 55.1106Z" fill="#BFC1B9"/>
</svg>
